<?xml version="1.0" standalone="no"?>
<!DOCTYPE svg PUBLIC "-//W3C//DTD SVG 20010904//EN"
 "http://www.w3.org/TR/2001/REC-SVG-20010904/DTD/svg10.dtd">
<svg version="1.0" xmlns="http://www.w3.org/2000/svg"
 width="1470.000000pt" height="982.000000pt" viewBox="0 0 1470.000000 982.000000"
 preserveAspectRatio="xMidYMid meet">

<g transform="translate(0.000000,982.000000) scale(0.100000,-0.100000)"
fill="#ffffff" stroke="#000000">
<path d="M5815 9814 c-101 -16 -203 -40 -295 -71 -106 -35 -372 -157 -378
-174 -2 -5 -8 -9 -13 -9 -10 0 -137 -81 -224 -142 -117 -83 -263 -201 -356
-288 -21 -19 -69 -64 -109 -100 -221 -201 -586 -617 -842 -959 -65 -86 -121
-160 -126 -166 -75 -95 -459 -661 -546 -805 -15 -25 -49 -80 -76 -123 -28 -43
-50 -82 -50 -87 0 -5 -4 -10 -8 -12 -4 -1 -41 -59 -81 -128 -41 -69 -100 -168
-131 -220 -31 -52 -76 -131 -100 -175 -24 -44 -67 -120 -95 -170 -29 -49 -79
-139 -110 -200 -32 -60 -79 -148 -105 -195 -97 -176 -406 -797 -543 -1090 -19
-41 -53 -115 -76 -163 -22 -49 -41 -90 -41 -92 0 -1 -18 -43 -41 -92 -22 -48
-46 -101 -54 -118 -7 -16 -22 -50 -33 -75 -11 -25 -46 -106 -77 -180 -31 -74
-65 -153 -75 -175 -10 -22 -30 -69 -44 -105 -15 -36 -31 -74 -36 -85 -5 -11
-43 -105 -85 -210 -41 -104 -79 -199 -85 -210 -5 -11 -30 -76 -55 -145 -26
-69 -72 -190 -102 -270 -108 -286 -320 -907 -413 -1210 -18 -58 -36 -116 -41
-130 -4 -14 -28 -95 -52 -180 -25 -85 -57 -198 -72 -250 -103 -362 -250 -999
-231 -1006 6 -2 553 -3 1215 -2 l1204 3 32 115 c18 63 47 169 65 235 73 271
292 953 335 1050 8 17 23 57 34 90 26 78 89 254 100 280 5 11 25 61 44 110
123 314 189 480 206 517 10 24 33 77 49 118 34 85 138 329 172 405 37 82 56
126 90 205 18 41 50 111 70 155 21 44 63 135 93 202 114 249 486 1005 629
1278 102 193 177 334 198 370 10 17 31 55 47 85 93 168 220 393 254 447 21 34
39 65 39 67 0 3 23 42 51 88 29 46 59 97 69 113 116 200 490 757 540 805 3 3
21 25 40 50 60 77 191 209 238 240 75 50 135 36 206 -46 90 -105 183 -299 327
-679 28 -75 124 -355 229 -670 52 -154 95 -281 96 -283 2 -4 2457 -2 2461 2 4
4 -18 72 -160 486 -204 594 -228 663 -257 735 -4 11 -17 45 -28 75 -77 209
-166 441 -229 593 -40 98 -73 179 -73 182 0 2 -18 43 -41 92 -59 126 -93 201
-115 253 -34 80 -188 379 -267 520 -121 216 -353 565 -420 632 -9 9 -17 19
-17 21 0 17 -240 276 -312 338 -34 29 -70 61 -78 69 -57 58 -257 196 -382 263
-145 77 -394 162 -531 182 -27 3 -59 8 -70 11 -34 7 -318 13 -352 8z"/>
<path d="M8344 8734 c11 -16 47 -67 81 -114 34 -47 97 -137 140 -200 44 -63
85 -121 92 -128 7 -7 13 -17 13 -21 0 -4 447 -11 993 -15 545 -4 1141 -11
1322 -16 367 -11 791 -28 845 -34 19 -3 105 -8 190 -12 85 -3 171 -8 190 -9
19 -2 76 -6 125 -10 50 -3 137 -10 195 -16 58 -5 155 -14 215 -19 61 -6 151
-15 200 -20 50 -6 158 -17 240 -26 83 -8 164 -17 180 -20 17 -2 91 -11 165
-19 305 -34 391 -53 494 -108 113 -60 156 -123 176 -257 11 -79 5 -836 -9
-1080 -14 -234 -39 -584 -51 -695 -19 -194 -30 -293 -40 -370 -5 -44 -17 -138
-25 -210 -9 -71 -20 -159 -25 -195 -6 -36 -14 -97 -20 -135 -5 -39 -11 -84
-14 -100 -2 -17 -10 -66 -16 -110 -6 -44 -23 -145 -37 -225 -14 -80 -27 -158
-30 -175 -2 -16 -8 -48 -13 -70 -10 -47 -20 -100 -56 -285 -41 -215 -84 -431
-94 -477 -6 -24 -14 -62 -20 -85 -85 -377 -187 -798 -210 -868 -5 -14 -29
-104 -55 -200 -55 -209 -119 -432 -146 -515 -11 -33 -23 -73 -28 -90 -82 -274
-149 -482 -170 -523 -28 -56 -115 -161 -172 -209 -99 -83 -173 -121 -284 -144
-27 -6 -68 -15 -90 -20 -84 -19 -387 -72 -477 -83 -26 -4 -80 -11 -120 -16
-352 -48 -869 -84 -1553 -110 -666 -24 -824 -31 -1000 -40 -248 -13 -1172 -13
-1485 0 -135 5 -364 15 -510 20 -393 16 -744 38 -1250 79 -63 6 -205 17 -315
25 -110 9 -247 20 -305 25 -58 6 -132 13 -165 16 -170 15 -285 26 -325 30 -25
3 -97 9 -160 15 -110 9 -207 19 -405 41 -49 5 -133 14 -185 19 -52 6 -138 14
-190 20 -88 9 -331 33 -460 45 -30 3 -71 7 -90 10 -19 3 -60 7 -90 10 -30 2
-81 7 -112 10 l-57 7 -19 -44 c-11 -23 -50 -117 -87 -208 -36 -90 -75 -183
-85 -205 -10 -22 -17 -41 -16 -43 2 -1 23 -4 47 -7 68 -7 235 -25 329 -36 47
-5 127 -14 178 -19 50 -6 136 -15 190 -20 211 -23 281 -30 387 -40 61 -6 133
-12 160 -15 48 -5 132 -12 395 -35 186 -16 222 -18 375 -30 77 -6 169 -13 205
-16 36 -2 128 -9 205 -15 77 -5 201 -14 275 -20 411 -30 942 -60 1295 -74 568
-23 787 -27 1470 -32 748 -5 1099 1 1635 28 107 5 306 14 443 19 877 35 943
39 1282 79 149 18 250 31 300 41 28 5 91 17 140 25 337 60 523 109 660 175
254 122 463 345 535 570 20 63 124 414 140 475 5 17 18 62 30 100 30 98 86
299 120 435 17 63 39 149 51 190 28 101 111 436 133 535 10 44 29 127 43 185
34 148 43 189 53 235 5 22 16 69 24 105 26 114 98 491 147 765 6 33 14 80 19
105 38 196 104 662 150 1055 6 50 15 124 20 165 32 260 66 642 80 885 29 493
33 587 45 1170 8 340 7 352 -14 428 -44 159 -125 278 -260 379 -42 32 -80 58
-84 58 -5 0 -21 8 -35 18 -35 24 -121 57 -196 77 -54 13 -365 60 -576 85 -47
6 -119 15 -160 20 -107 13 -363 40 -560 59 -91 9 -221 19 -325 26 -16 1 -115
8 -220 15 -104 6 -219 13 -255 15 -36 2 -168 8 -295 15 -634 31 -1101 41
-2284 47 l-1105 6 18 -29z"/>
<path d="M4629 4673 c-6 -16 -22 -57 -36 -93 -13 -36 -30 -78 -38 -95 -7 -16
-21 -50 -30 -75 -9 -25 -21 -54 -26 -65 -8 -19 -127 -326 -151 -390 -6 -16
-21 -52 -33 -80 -12 -27 -36 -86 -53 -130 -81 -210 -125 -323 -137 -350 -7
-16 -25 -61 -40 -100 -15 -38 -31 -79 -36 -90 -4 -11 -29 -74 -54 -140 -26
-66 -52 -133 -60 -150 -7 -16 -27 -68 -45 -115 -18 -47 -54 -139 -80 -205 -27
-66 -58 -144 -69 -172 l-21 -53 2504 0 2504 0 7 43 c3 23 13 74 21 114 7 39
16 89 19 110 3 21 13 76 21 123 9 47 20 110 24 140 5 30 13 80 19 110 5 30 12
71 15 90 10 57 36 198 57 310 18 97 81 456 104 595 14 79 38 218 55 315 20
109 28 153 51 280 5 30 11 64 12 75 2 20 -5 20 -2246 23 l-2247 2 -11 -27z"/>
<path d="M9504 4692 c-5 -4 -20 -70 -33 -147 -13 -77 -27 -160 -32 -185 -4
-25 -13 -71 -19 -102 -5 -32 -14 -83 -20 -113 -28 -153 -56 -312 -64 -365 -3
-19 -10 -61 -16 -92 -5 -32 -14 -82 -19 -110 -5 -29 -12 -66 -15 -83 -3 -16
-15 -84 -26 -150 -22 -124 -35 -197 -49 -275 -24 -133 -81 -450 -85 -480 -3
-19 -10 -62 -16 -95 -6 -33 -13 -75 -16 -92 l-5 -33 450 0 c248 0 451 2 451 5
0 10 50 305 71 415 22 120 30 164 48 265 11 67 22 128 45 255 9 47 23 129 31
183 8 54 20 118 25 141 5 24 12 60 15 82 2 21 10 66 16 99 6 33 15 80 19 105
4 25 13 72 20 105 6 33 15 83 20 110 4 28 13 77 19 110 35 188 77 446 73 450
-8 8 -877 5 -888 -3z"/>
<path d="M11011 4643 c-12 -58 -20 -101 -41 -223 -7 -36 -16 -85 -21 -110 -8
-38 -75 -432 -110 -640 -6 -36 -15 -83 -19 -105 -5 -22 -14 -69 -20 -105 -13
-75 -25 -144 -39 -215 -6 -27 -22 -120 -36 -205 -38 -223 -83 -487 -94 -545
-5 -27 -12 -67 -16 -87 l-6 -38 310 0 c203 0 312 4 316 10 4 6 11 39 17 73 14
91 24 146 53 302 14 77 41 232 61 345 19 113 39 230 45 260 5 30 12 69 14 85
3 17 14 80 25 140 12 61 25 133 30 160 29 160 42 238 70 400 17 99 40 232 51
295 11 63 25 142 30 174 6 33 12 63 14 67 10 15 -35 18 -323 19 l-299 1 -12
-58z"/>
<path d="M12366 4691 c-3 -4 -10 -34 -15 -67 -6 -32 -15 -84 -20 -114 -42
-227 -65 -357 -76 -430 -14 -86 -32 -188 -39 -225 -2 -11 -7 -40 -10 -65 -4
-25 -11 -65 -16 -90 -5 -25 -13 -72 -19 -105 -6 -33 -18 -96 -27 -140 -9 -44
-19 -102 -24 -130 -4 -27 -20 -120 -34 -205 -15 -85 -29 -168 -32 -185 -2 -16
-9 -56 -15 -87 -5 -32 -12 -70 -15 -85 -2 -16 -14 -77 -25 -138 -11 -60 -24
-134 -29 -163 -5 -30 -12 -63 -15 -73 -6 -19 0 -19 211 -17 l218 3 13 75 c7
41 22 122 33 180 31 163 57 307 94 530 32 189 77 442 97 550 8 45 20 112 38
213 6 28 24 133 41 232 17 99 35 205 41 235 5 30 16 96 24 145 8 50 19 104 24
122 5 17 6 34 3 38 -9 8 -421 5 -426 -4z"/>
</g>
</svg>
