<?xml version="1.0" encoding="utf-8"?>
<!-- Generator: Adobe Illustrator 25.2.3, SVG Export Plug-In . SVG Version: 6.00 Build 0)  -->
<svg version="1.1" id="Logo" xmlns="http://www.w3.org/2000/svg" xmlns:xlink="http://www.w3.org/1999/xlink" x="0px" y="0px"
	 viewBox="0 0 283.5 362.7" style="enable-background:new 0 0 283.5 362.7;" xml:space="preserve">
<style type="text/css">
	.st0{fill:url(#SVGID_1_);}
	.st1{fill:url(#SVGID_2_);}
	.st2{fill:url(#SVGID_3_);}
	.st3{fill:url(#SVGID_4_);}
	.st4{fill:url(#SVGID_5_);}
	.st5{fill:url(#SVGID_6_);}
	.st6{fill:url(#SVGID_7_);}
	.st7{fill:#1A1A1A;}
	.st8{fill:url(#SVGID_8_);}
	.st9{fill:url(#SVGID_9_);}
	.st10{fill:url(#SVGID_10_);}
	.st11{fill:url(#SVGID_11_);}
	.st12{fill:url(#SVGID_12_);}
	.st13{fill:url(#SVGID_13_);}
	.st14{fill:url(#SVGID_14_);}
	.st15{fill:#FFFFFF;}
	.st16{fill:url(#SVGID_15_);}
	.st17{fill:url(#SVGID_16_);}
	.st18{fill:url(#SVGID_17_);}
	.st19{fill:url(#SVGID_18_);}
	.st20{fill:url(#SVGID_19_);}
	.st21{fill:url(#SVGID_20_);}
	.st22{fill:url(#SVGID_21_);}
	.st23{fill:url(#SVGID_22_);}
	.st24{fill:url(#SVGID_23_);}
	.st25{fill:url(#SVGID_24_);}
	.st26{fill:url(#SVGID_25_);}
	.st27{fill:url(#SVGID_26_);}
	.st28{fill:url(#SVGID_27_);}
	.st29{fill:url(#SVGID_28_);}
	.st30{fill:url(#SVGID_29_);}
	.st31{fill:url(#SVGID_30_);}
	.st32{fill:url(#SVGID_31_);}
	.st33{fill:url(#SVGID_32_);}
	.st34{fill:url(#SVGID_33_);}
	.st35{fill:url(#SVGID_34_);}
	.st36{fill:url(#SVGID_35_);}
	.st37{fill:url(#SVGID_36_);}
	.st38{fill:url(#SVGID_37_);}
	.st39{fill:url(#SVGID_38_);}
	.st40{fill:url(#SVGID_39_);}
	.st41{fill:url(#SVGID_40_);}
	.st42{fill:url(#SVGID_41_);}
	.st43{fill:url(#SVGID_42_);}
	.st44{fill:url(#SVGID_43_);}
	.st45{fill:url(#SVGID_44_);}
	.st46{fill:url(#SVGID_45_);}
	.st47{fill:url(#SVGID_46_);}
	.st48{fill:url(#SVGID_47_);}
	.st49{fill:url(#SVGID_48_);}
	.st50{fill:url(#SVGID_49_);}
	.st51{fill:url(#SVGID_50_);}
	.st52{fill:url(#SVGID_51_);}
	.st53{fill:url(#SVGID_52_);}
	.st54{fill:url(#SVGID_53_);}
	.st55{fill:url(#SVGID_54_);}
	.st56{fill:url(#SVGID_55_);}
	.st57{fill:url(#SVGID_56_);}
</style>
<g>
	<g>
		<g>
			
				<radialGradient id="SVGID_1_" cx="2594.8982" cy="-36612.5664" r="298.2676" gradientTransform="matrix(0.1405 0 0 0.1405 -232.4193 5269.1567)" gradientUnits="userSpaceOnUse">
				<stop  offset="0" style="stop-color:#4495D1"/>
				<stop  offset="1" style="stop-color:#15256D"/>
			</radialGradient>
			<path class="st0" d="M163.9,161.7c-11,12.2-29.8,13.2-42.1,2.2c-12.2-11-13.2-29.8-2.2-42.1c11-12.2,29.9-13.2,42.1-2.1
				C173.9,130.6,174.9,149.5,163.9,161.7z"/>
			<linearGradient id="SVGID_2_" gradientUnits="userSpaceOnUse" x1="41.2266" y1="121.7069" x2="111.6967" y2="13.1925">
				<stop  offset="0" style="stop-color:#4495D1"/>
				<stop  offset="1" style="stop-color:#15256D"/>
			</linearGradient>
			<path class="st1" d="M56.5,28.5c-19.5,14.7-35,34.3-44.9,57c11.8,2.9,47,14.4,63.2,58.1c4.9-1.6,15.4-7.7,22.6-31.3
				c9.8-31.6,28.3-62,52.3-72.2C125.8,16.4,94.3,10.8,56.5,28.5z"/>
			<linearGradient id="SVGID_3_" gradientUnits="userSpaceOnUse" x1="69.3549" y1="-3.3543" x2="244.4126" y2="67.3736">
				<stop  offset="0" style="stop-color:#4495D1"/>
				<stop  offset="1" style="stop-color:#15256D"/>
			</linearGradient>
			<path class="st2" d="M250.9,51.3C250.9,51.3,250.9,51.3,250.9,51.3C224.9,20,185.6,0,141.7,0c-32,0-61.5,10.6-85.2,28.5
				c52.5-24.6,92.9-4.3,117.6,47C213.5,82.6,240.3,63,250.9,51.3z"/>
			
				<linearGradient id="SVGID_4_" gradientUnits="userSpaceOnUse" x1="-2898.1279" y1="2819.0466" x2="-2827.6621" y2="2710.5388" gradientTransform="matrix(-0.5 -0.866 0.866 -0.5 -3715.7771 -861.5573)">
				<stop  offset="0" style="stop-color:#4495D1"/>
				<stop  offset="1" style="stop-color:#15256D"/>
			</linearGradient>
			<path class="st3" d="M86.3,272.2c22.5,9.5,47.2,13.2,71.8,10.4c-3.4-11.7-11.1-47.9,18.7-83.8c-3.8-3.4-14.3-9.4-38.4-4
				c-32.2,7.3-67.8,6.5-88.7-9.2C41.1,218.2,52.1,248.3,86.3,272.2z"/>
			
				<linearGradient id="SVGID_5_" gradientUnits="userSpaceOnUse" x1="-2870.0063" y1="2693.9924" x2="-2694.9355" y2="2764.7256" gradientTransform="matrix(-0.5 -0.866 0.866 -0.5 -3715.7771 -861.5573)">
				<stop  offset="0" style="stop-color:#4495D1"/>
				<stop  offset="1" style="stop-color:#15256D"/>
			</linearGradient>
			<path class="st4" d="M8.9,92.4C8.9,92.4,8.9,92.4,8.9,92.4C-5.3,130.6-2.9,174.5,19,212.6c16,27.7,40,48,67.3,59.6
				C38.8,239,36.1,193.9,68.2,146.8C54.6,109.1,24.2,95.7,8.9,92.4z"/>
			
				<linearGradient id="SVGID_6_" gradientUnits="userSpaceOnUse" x1="-3764.4143" y1="-1075.1697" x2="-3693.9441" y2="-1183.6842" gradientTransform="matrix(-0.5 0.866 -0.866 -0.5 -2604.019 2787.1787)">
				<stop  offset="0" style="stop-color:#4495D1"/>
				<stop  offset="1" style="stop-color:#15256D"/>
			</linearGradient>
			<path class="st5" d="M282.4,124.5c-3-24.2-12.2-47.5-26.9-67.3c-8.4,8.7-36,33.6-81.9,25.7c-1.1,5-1,17.1,15.8,35.3
				c22.5,24.3,39.5,55.5,36.4,81.4C258.3,190.6,278.9,166.1,282.4,124.5z"/>
			
				<linearGradient id="SVGID_7_" gradientUnits="userSpaceOnUse" x1="-3736.2871" y1="-1200.2296" x2="-3561.2224" y2="-1129.499" gradientTransform="matrix(-0.5 0.866 -0.866 -0.5 -2604.019 2787.1787)">
				<stop  offset="0" style="stop-color:#4495D1"/>
				<stop  offset="1" style="stop-color:#15256D"/>
			</linearGradient>
			<path class="st6" d="M165.4,281.4C165.4,281.4,165.4,281.4,165.4,281.4c40.2-6.8,77.1-30.8,99-68.9c16-27.7,21.6-58.6,17.9-88.1
				c-4.9,57.7-42.7,82.6-99.5,78.4C157,233.5,160.6,266.5,165.4,281.4z"/>
		</g>
	</g>
	<g>
		<g>
			<path class="st7" d="M25.8,362.1h-7.7v-36h12.4c9,0,14.8,3.8,14.8,12c0,8.1-5.9,12.7-15.5,12.7h-4V362.1z M25.7,344.1h4.2
				c4.6,0,7.4-1.8,7.4-5.6c0-4-2.6-5.5-7.3-5.5h-4.3V344.1z"/>
			<path class="st7" d="M50.9,344.1c0-12.1,7.3-18.6,17.3-18.6c11.1,0,17.5,7,17.5,18.6c0,12.8-7.5,18.6-17.3,18.6
				C57.9,362.7,50.9,356.2,50.9,344.1z M77.5,344.1c0-8.2-3.8-11.8-9.4-11.8c-5.1,0-9.1,3.8-9.1,11.8s4.2,11.8,9.6,11.8
				C73.8,355.9,77.5,352.2,77.5,344.1z"/>
			<path class="st7" d="M120,360.7c-1.9,1-4.5,2.1-9.7,2.1c-11,0-18.2-6.3-18.2-18.1c0-12.4,7.2-19.1,19-19.1c3.9,0,7.1,0.8,9,1.7
				l-1.7,6.5c-2.2-0.7-4.6-1.1-6.3-1.1c-7.1,0-11.9,3.5-11.9,11.5c0,7.6,4.6,11.5,11.9,11.5c1.6,0,4.2-0.5,6.4-1.4L120,360.7z"/>
			<path class="st7" d="M148.2,352.5h-15.4l-3.5,9.6h-4.7l13.7-36h4.6l13.5,36h-4.8L148.2,352.5z M134.3,348.3h12.4l-6-16.9h-0.2
				L134.3,348.3z"/>
			<path class="st7" d="M172.5,362.1h-4.6v-31.7h-10.6v-4.3h25.9v4.3h-10.6V362.1z"/>
			<path class="st7" d="M188.1,344.1c0-11.5,6.6-18.5,16.1-18.5c10.7,0,16.4,7.6,16.4,18.5c0,12.2-6.9,18.5-16.3,18.5
				C194.4,362.6,188.1,355.5,188.1,344.1z M215.7,344.1c0-9.9-4.4-14.2-11.5-14.2c-6.3,0-11.2,4.6-11.2,14.2
				c0,9.5,4.7,14.2,11.8,14.2C211.6,358.3,215.7,353.4,215.7,344.1z"/>
			<path class="st7" d="M265.4,362.1h-4.6l-2.2-28.1l-9.1,28.1h-4.8l-9-28l-2.3,28h-4.6l3.1-36h5.7l9.7,30.9l9.5-30.9h5.7
				L265.4,362.1z"/>
		</g>
	</g>
</g>
</svg>
